/* XPM */
static char * bitcoin16_xpm[] = {
"16 16 90 1",
" 	c None",
".	c #FFFFFF",
"+	c #FEF8F0",
"@	c #FBCE93",
"#	c #F9B052",
"$	c #F8A538",
"%	c #FBC783",
"&	c #F7991F",
"*	c #F79B23",
"=	c #F9B359",
"-	c #FBC785",
";	c #F9B459",
">	c #F7991E",
",	c #FBC277",
"'	c #FCC378",
")	c #F9981A",
"!	c #FAAE4B",
"~	c #FBC683",
"{	c #FCD8A7",
"]	c #FFF4DD",
"^	c #FFEBC9",
"/	c #FFFCEF",
"(	c #FAC077",
"_	c #707070",
":	c #161616",
"<	c #191919",
"[	c #191C1F",
"}	c #191C20",
"|	c #08090A",
"1	c #E9E9E9",
"2	c #FFFEFD",
"3	c #484848",
"4	c #2A2A2A",
"5	c #686868",
"6	c #616161",
"7	c #595959",
"8	c #A8A8A8",
"9	c #F9B153",
"0	c #F9B358",
"a	c #212121",
"b	c #4F4F4F",
"c	c #FAC785",
"d	c #F1F1F1",
"e	c #141414",
"f	c #7C7C7C",
"g	c #F5F5F5",
"h	c #F4F4F4",
"i	c #FEFBF6",
"j	c #FEFBF7",
"k	c #C3C3C3",
"l	c #222222",
"m	c #131313",
"n	c #090909",
"o	c #656566",
"p	c #F7981B",
"q	c #F79A21",
"r	c #F89B23",
"s	c #F89E2A",
"t	c #F8A02D",
"u	c #969696",
"v	c #1E1E1E",
"w	c #727272",
"x	c #C3C3C4",
"y	c #FAC177",
"z	c #FBC784",
"A	c #FBCC8F",
"B	c #F9AA43",
"C	c #F9B356",
"D	c #696A6C",
"E	c #151515",
"F	c #F79D26",
"G	c #F7971B",
"H	c #FFE7AF",
"I	c #3A3F45",
"J	c #303030",
"K	c #FCC174",
"L	c #FFE9C3",
"M	c #191C21",
"N	c #5D5D5D",
"O	c #FBD7A6",
"P	c #DCD6CE",
"Q	c #8B8C8D",
"R	c #FFFEFE",
"S	c #FAC176",
"T	c #696969",
"U	c #ABB3BC",
"V	c #FFA52E",
"W	c #F9B257",
"X	c #FCCC8F",
"Y	c #F9B053",
"....+@#$$#@+....",
"...%&*=--=*&%...",
"..;>,......')!..",
".~>{........]^/.",
"+&(._:<<<<<<[}|1",
"@*2.345666666678",
"90..ab..........",
"$c.def.gh.iijjji",
"$c.kalmno.pqrrst",
"90.uv_fwx.y%zABC",
"@*.DE.........F@",
"+GHIJ........(&+",
".KLMN.......O>~.",
"..P|Q.....RS>;..",
"...TUVWzz=*&%...",
".....X#$$Y@+...."};
