/* XPM */
static char * bitcoin32_xpm[] = {
"32 32 149 2",
"  	c None",
". 	c #FFFFFF",
"+ 	c #FDE7CA",
"@ 	c #FBCD92",
"# 	c #FABB69",
"$ 	c #F9AF4E",
"% 	c #F9AA43",
"& 	c #FEFDFA",
"* 	c #FBC580",
"= 	c #F89F2B",
"- 	c #F8A130",
"; 	c #F8A437",
"> 	c #F8A63C",
", 	c #F8A83F",
"' 	c #F8A840",
") 	c #FBCD91",
"! 	c #F89D27",
"~ 	c #F8A539",
"{ 	c #F8A334",
"] 	c #F8A02E",
"^ 	c #F9AB45",
"/ 	c #F8A232",
"( 	c #F8A233",
"_ 	c #F8A02D",
": 	c #FABF71",
"< 	c #FCD9AC",
"[ 	c #FDEAD1",
"} 	c #FEF2E4",
"| 	c #FEF9F3",
"1 	c #F8A12F",
"2 	c #F8A63B",
"3 	c #F9A941",
"4 	c #F8A436",
"5 	c #FEFFFF",
"6 	c #F8A73D",
"7 	c #F9A840",
"8 	c #FAC278",
"9 	c #F89E2A",
"0 	c #F8A538",
"a 	c #FEFBF6",
"b 	c #F89D28",
"c 	c #FCDAAE",
"d 	c #FEDEB3",
"e 	c #FCC57D",
"f 	c #FDC782",
"g 	c #FCC57C",
"h 	c #FDCD8E",
"i 	c #FEFCFA",
"j 	c #EDEDED",
"k 	c #060606",
"l 	c #1B1B1B",
"m 	c #0A0A0A",
"n 	c #F9F9F9",
"o 	c #FAC580",
"p 	c #F8A335",
"q 	c #C0C0C0",
"r 	c #222222",
"s 	c #333333",
"t 	c #282828",
"u 	c #777777",
"v 	c #FCDAAC",
"w 	c #939393",
"x 	c #262626",
"y 	c #2F2F2F",
"z 	c #242424",
"A 	c #232323",
"B 	c #0D0D0D",
"C 	c #666666",
"D 	c #2B2B2B",
"E 	c #3F3F3F",
"F 	c #B8B8B8",
"G 	c #ACACAC",
"H 	c #A4A4A4",
"I 	c #EBEBEB",
"J 	c #383838",
"K 	c #2A2A2A",
"L 	c #727272",
"M 	c #FABB6A",
"N 	c #191919",
"O 	c #323232",
"P 	c #252525",
"Q 	c #9D9D9D",
"R 	c #DEDEDE",
"S 	c #1F1F1F",
"T 	c #212121",
"U 	c #D1D1D1",
"V 	c #F8AA43",
"W 	c #FEF3E4",
"X 	c #B2B2B2",
"Y 	c #CFCFCF",
"Z 	c #D9D9D9",
"` 	c #D6D6D6",
" .	c #D2D2D2",
"..	c #ECECEC",
"+.	c #FDF0DF",
"@.	c #FDEDD8",
"#.	c #FDEDD9",
"$.	c #FDEED9",
"%.	c #858585",
"&.	c #202020",
"*.	c #0E0E0E",
"=.	c #BDBDBD",
"-.	c #F89F2C",
";.	c #585858",
">.	c #2C2C2C",
",.	c #1C1C1C",
"'.	c #F2F2F2",
").	c #292929",
"!.	c #313131",
"~.	c #272727",
"{.	c #1E1E1E",
"].	c #FEF5EA",
"^.	c #F7971A",
"/.	c #1A1A1A",
"(.	c #979797",
"_.	c #E3E3E3",
":.	c #DBDBDB",
"<.	c #DADADA",
"[.	c #DDDDDD",
"}.	c #FEFBF7",
"|.	c #FEEFDE",
"1.	c #FEF6EC",
"2.	c #FABA68",
"3.	c #DCDCDC",
"4.	c #777778",
"5.	c #303030",
"6.	c #4A4A4A",
"7.	c #2E2E2E",
"8.	c #616161",
"9.	c #FAB65D",
"0.	c #8F8F8F",
"a.	c #F9A63C",
"b.	c #FFCA86",
"c.	c #F0F6FE",
"d.	c #BCBCBC",
"e.	c #FEF8F1",
"f.	c #FFE3B8",
"g.	c #C3C6CA",
"h.	c #E7E7E7",
"i.	c #888888",
"j.	c #FEEBD3",
"k.	c #FCD9AD",
"l.	c #F5F5F5",
"m.	c #3C3C3C",
"n.	c #F9B358",
"o.	c #818181",
"p.	c #F8A83E",
"q.	c #FFFEFB",
"r.	c #F7991D",
". . . . . . . . . . . + @ # $ % % $ # @ + . . . . . . . . . . . ",
". . . . . . . . & * = - ; > , ' ' , > ; - = * & . . . . . . . . ",
". . . . . . . ) ! ; ' ' ~ { - ] ] - { ~ ' ' ; ! ) . . . . . . . ",
". . . . . . ^ / ' , ( _ : < [ } } [ < : _ ( , ' / ^ . . . . . . ",
". . . . | 1 2 3 4 { < . . . . . . . . . . < { 4 3 2 1 | . . . . ",
". . . 5 1 6 7 = 8 . . . . . . . . . . . . . . 8 9 0 { ! a . . . ",
". . . ^ 2 7 b c . . . . . . . . . . . . . . . . d e f g h . . . ",
". . ) / 3 = c . . . . . . . . . . . . . . . . . . . . . . . . . ",
". i ! ' 4 8 . . j k l l l l l l l l l l l l l l l l l l l m n . ",
". o ; , p . . . q r s s s s s s s s s s s s s s s s s s s t u . ",
". = ' ( v . . . w x s y z z z z z z z z z z z z z z z z z A B . ",
"+ - ' _ . . . . C D y E F G G G G G G G G G G G G G G G G G H I ",
") ; ~ : . . . . J y K L . . . . . . . . . . . . . . . . . . . . ",
"M > { < . . . . N O P Q . . . . . . . . . . . . . . . . . . . . ",
"$ , - [ . . . R S s T U . . . . . . . . . . . . . . . . . . . . ",
"V 7 ] W . . . X A s r Y Z ` ` `  .... . +.@.#.#.#.#.#.#.#.#.#.$.",
"V 7 ] W . . . %.t s s r &.&.&.&.*.=.. . ; -.1 1 1 1 1 1 1 1 ] / ",
"$ , - [ . . . ;.>.s s s s s s s ,.'.. . 9 7 3 3 3 3 3 3 3 3 , $ ",
"M > { < . . . ).!.s ~.S S S S {.*.. . ].^.] ] ] ] ] ] ] > 3 > # ",
") ; ~ : . . . /.s ~.(._.:.:.:.<.[.. . }.$.|.|.|.|.|.|.1.2.> ; @ ",
"+ - ' _ . . U &.s S 3.. . . . . . . . . . . . . . . . . 1 ' - + ",
". = ' ( v . H P O N . . . . . . . . . . . . . . . . . v ( ' = . ",
". o ; , ( . 4.).5.s . . . . . . . . . . . . . . . . . p , ; o . ",
". i ! , ] . 6.7.D 8.. . . . . . . . . . . . . . . . 8 4 ' ! i . ",
". . ) _ 9.. {.O ~.0.. . . . . . . . . . . . . . . c = 3 / ) . . ",
". . . a.b.c.,.s r d.. . . . . . . . . . . . . . c b 7 2 ^ . . . ",
". . . e.f.g.r s {.h.. . . . . . . . . . . . . 8 = 7 6 1 5 . . . ",
". . . . . i.r O N . j.. . . . . . . . . . k.{ 4 3 2 1 | . . . . ",
". . . . . l.J S m.. n.! : < [ } } [ < : _ ( , ' / ^ . . . . . . ",
". . . . . . . o.;.. ( p.~ { - ] ] - { ~ ' ' ; ! ) . . . . . . . ",
". . . . . . . . . q.r.- ; > , ' ' , > ; - = * & . . . . . . . . ",
". . . . . . . . . . . + @ # $ % % $ # @ + . . . . . . . . . . . "};
