/* XPM */
static char *_3a6afef37374c3ad17156b36050c7b1[] = {
/* columns rows colors chars-per-pixel */
"16 16 187 2 ",
"   c #483805",
".  c #4C3C06",
"X  c #433B20",
"o  c #463F27",
"O  c #544207",
"+  c #51420D",
"@  c #51420F",
"#  c #675001",
"$  c #695001",
"%  c #705703",
"&  c #755B04",
"*  c #785F0D",
"=  c #6F5C1C",
"-  c #776117",
";  c #7A6317",
":  c #52492B",
">  c #5B502C",
",  c #564E30",
"<  c #605325",
"1  c #62562B",
"2  c #685A2A",
"3  c #675D37",
"4  c #685D3A",
"5  c #6D6135",
"6  c #6E6237",
"7  c #6D6139",
"8  c #6D6239",
"9  c #6E633A",
"0  c #71653E",
"q  c #72663F",
"w  c #73673F",
"e  c #766A3F",
"r  c #786C42",
"t  c #786C43",
"y  c #796C43",
"u  c #796D45",
"i  c #786D46",
"p  c #796E46",
"a  c #7C6F44",
"s  c #7D714A",
"d  c #836B19",
"f  c #836C1B",
"g  c #866D1B",
"h  c #937613",
"j  c #9A7C17",
"k  c #9E7F15",
"l  c #90761D",
"z  c #93781C",
"x  c #977C1F",
"c  c #997D19",
"v  c #816D28",
"b  c #806D2E",
"n  c #8B762F",
"m  c #9A7E20",
"M  c #91782C",
"N  c #917B2E",
"B  c #857232",
"V  c #967E35",
"C  c #937E38",
"Z  c #917D3A",
"A  c #857645",
"S  c #83764A",
"D  c #84774B",
"F  c #81754E",
"G  c #87794C",
"H  c #8B7D48",
"J  c #827751",
"K  c #837852",
"L  c #847950",
"P  c #847952",
"I  c #877C55",
"U  c #8B7E53",
"Y  c #9F8221",
"T  c #9B8330",
"R  c #9D883E",
"E  c #A58824",
"W  c #A78925",
"Q  c #A48826",
"!  c #A78C2B",
"~  c #AB8E2B",
"^  c #A88E33",
"/  c #AA8F32",
"(  c #A18A3C",
")  c #AF9335",
"_  c #A9913F",
"`  c #C4A63F",
"'  c #998240",
"]  c #9E8641",
"[  c #91824E",
"{  c #8C8056",
"}  c #8C8057",
"|  c #8F8256",
" . c #8F8358",
".. c #8F845D",
"X. c #928556",
"o. c #968857",
"O. c #9A8A53",
"+. c #9D8C51",
"@. c #91845A",
"#. c #958758",
"$. c #90855D",
"%. c #94885D",
"&. c #9C8D59",
"*. c #9D8E5A",
"=. c #9B9058",
"-. c #A38E44",
";. c #A18D47",
":. c #A48F46",
">. c #AF9641",
",. c #AF9742",
"<. c #AE9747",
"1. c #A9954E",
"2. c #B09846",
"3. c #B29B48",
"4. c #A18F52",
"5. c #AB9957",
"6. c #A59458",
"7. c #A4945B",
"8. c #A0905C",
"9. c #A0965F",
"0. c #AC9A5B",
"q. c #B9A047",
"w. c #B8A153",
"e. c #BEA653",
"r. c #BBA457",
"t. c #BCA555",
"y. c #B0A05A",
"u. c #B7A25A",
"i. c #B3A05E",
"p. c #918661",
"a. c #968B63",
"s. c #958A64",
"d. c #978B65",
"f. c #9C8E60",
"g. c #9B8F65",
"h. c #998E68",
"j. c #9D9063",
"k. c #9B9064",
"l. c #9B906B",
"z. c #938D7B",
"x. c #9C947B",
"c. c #A49665",
"v. c #A39874",
"b. c #BBA760",
"n. c #B7A76F",
"m. c #B8AD68",
"M. c #B3A77C",
"N. c #CAAD47",
"B. c #CFB14A",
"V. c #D0B34E",
"C. c #C4AC56",
"Z. c #CAAF55",
"A. c #C4AB59",
"S. c #C3AD5A",
"D. c #CEB254",
"F. c #C7B25B",
"G. c #CEB458",
"H. c #D0B351",
"J. c #C7B365",
"K. c #CDBE6A",
"L. c #D1BB65",
"P. c #D5BD6A",
"I. c #E0C35F",
"U. c #CFC26B",
"Y. c #DCC062",
"T. c #D9C069",
"R. c #CAC278",
"E. c #E3C766",
"W. c #E2C769",
"Q. c #E1C76D",
"!. c #E9D17D",
"~. c #F2D572",
"^. c #F8DC79",
"/. c #F9DD7C",
"(. c #9F9983",
"). c #9E9886",
"_. c #A69D82",
"`. c #ACA280",
"'. c #AAA287",
"]. c #DDCA86",
"[. c #E1CD8A",
"{. c #E7D081",
"}. c #ECD482",
"|. c #EED683",
" X c #EED785",
".X c #EED787",
"XX c None",
/* pixels */
"XXXXXXXXXXXX= @ + - XXXXXXXXXXXX",
"XXXXXXXX>.c %   . & j ) XXXXXXXX",
"XXXXXX>.Y n < o X 2 B x / XXXXXX",
"XXXXd l S 0 9 : 4 r 9 r f * XXXX",
"XX; $ 1 9 y u K 0 i s 3 , O # XX",
"XXE v > 6 5.u.b.:.( T N ' b h XX",
"w.~ A u H L.i.5.;.R N V ] L / N.",
"2.z a 0 y.J.f.X.F #.o.@.I s _ B.",
"1.g r 5 K.F.C.0.[ ! k +.@.L <.P.",
"r.E S =.U.%.I | s.C m s.| L q.E.",
"XXN.4.R.m.8.S.t.3.W Z $.g.&.H.XX",
"XXZ.D.c.k.*.6.c.7.+.j.U ..C.B.XX",
"XXXXI.S.s.h.l._.'.`.v.p.-.B.XXXX",
"XXXXXXQ.G.n.x.z.)._.M.P.P.XXXXXX",
"XXXXXXXXW.~. X].[.}./.^.XXXXXXXX",
"XXXXXXXXXXXX{..X X!.XXXXXXXXXXXX"
};
