/* XPM */
static char * bitcoin64_xpm[] = {
"64 64 230 2",
"  	c None",
". 	c #FFFFFF",
"+ 	c #FEFFFF",
"@ 	c #FDE9CE",
"# 	c #FCD6A5",
"$ 	c #FBC784",
"% 	c #FABA68",
"& 	c #F9B255",
"* 	c #F9AD4A",
"= 	c #F9AB45",
"- 	c #FEF1E1",
"; 	c #FBCD91",
"> 	c #F9AC48",
", 	c #F89E29",
"' 	c #F8A131",
") 	c #F8A335",
"! 	c #F8A539",
"~ 	c #F8A63C",
"{ 	c #F8A73E",
"] 	c #F8A83F",
"^ 	c #F8A840",
"/ 	c #FCD8A8",
"( 	c #F8AA44",
"_ 	c #F89F2B",
": 	c #F8A436",
"< 	c #F8A73D",
"[ 	c #F9A840",
"} 	c #F9A941",
"| 	c #FBD098",
"1 	c #F8A02E",
"2 	c #F8A233",
"3 	c #FDDEB5",
"4 	c #F8A230",
"5 	c #F8A334",
"6 	c #FEFEFC",
"7 	c #F9B154",
"8 	c #F8A02D",
"9 	c #F8A73C",
"0 	c #F8A538",
"a 	c #FDE4C4",
"b 	c #F89E2A",
"c 	c #F8A63A",
"d 	c #F8A435",
"e 	c #F9B254",
"f 	c #FAC37C",
"g 	c #FBCF96",
"h 	c #FCD9AB",
"i 	c #FCDCB3",
"j 	c #FBCB8D",
"k 	c #F89D27",
"l 	c #F9AB46",
"m 	c #FCD098",
"n 	c #FDEFDC",
"o 	c #FABC6B",
"p 	c #F8A02F",
"q 	c #F89E28",
"r 	c #FAC075",
"s 	c #FAB863",
"t 	c #F8A232",
"u 	c #FABE71",
"v 	c #FFFCF9",
"w 	c #FABC6C",
"x 	c #F9A73E",
"y 	c #FEF0DD",
"z 	c #FAC176",
"A 	c #FDE4C3",
"B 	c #FCD9AC",
"C 	c #F79B23",
"D 	c #F8A12F",
"E 	c #F79516",
"F 	c #FCDCB2",
"G 	c #FFFEFC",
"H 	c #FDE7C9",
"I 	c #FEF4E6",
"J 	c #FDECD5",
"K 	c #FDEDD7",
"L 	c #FDECD6",
"M 	c #FDE8CD",
"N 	c #FDE7CA",
"O 	c #FCDDB5",
"P 	c #E9E9E9",
"Q 	c #EDEDED",
"R 	c #EBEBEB",
"S 	c #F8F8F8",
"T 	c #F8A130",
"U 	c #FBC176",
"V 	c #D7D7D7",
"W 	c #0A0A0A",
"X 	c #1D1D1D",
"Y 	c #1C1C1C",
"Z 	c #1A1A1A",
"` 	c #ACACAC",
" .	c #242424",
"..	c #333333",
"+.	c #252525",
"@.	c #909090",
"#.	c #FEF0DE",
"$.	c #7E7E7E",
"%.	c #282828",
"&.	c #313131",
"*.	c #1E1E1E",
"=.	c #FABF71",
"-.	c #515151",
";.	c #2D2D2D",
">.	c #A2A2A2",
",.	c #F9AA44",
"'.	c #F89D28",
").	c #FFFDF9",
"!.	c #2F2F2F",
"~.	c #363636",
"{.	c #FEF1E2",
"].	c #FAC175",
"^.	c #F9F9F9",
"/.	c #1B1B1B",
"(.	c #171717",
"_.	c #DDDDDD",
":.	c #FBCD90",
"<.	c #C9C9C9",
"[.	c #212121",
"}.	c #434343",
"|.	c #414141",
"1.	c #373737",
"2.	c #8D8D8D",
"3.	c #F9AB48",
"4.	c #9E9E9E",
"5.	c #898989",
"6.	c #717171",
"7.	c #2A2A2A",
"8.	c #232323",
"9.	c #B2B2B2",
"0.	c #FDE9CD",
"a.	c #FDEFDB",
"b.	c #424242",
"c.	c #2E2E2E",
"d.	c #1F1F1F",
"e.	c #DFDFDF",
"f.	c #323232",
"g.	c #383838",
"h.	c #BBBBBB",
"i.	c #222222",
"j.	c #2B2B2B",
"k.	c #676767",
"l.	c #FAB255",
"m.	c #FCCF96",
"n.	c #8F8F8F",
"o.	c #272727",
"p.	c #262626",
"q.	c #939393",
"r.	c #F8AD4A",
"s.	c #F9A83F",
"t.	c #FBD9AB",
"u.	c #626262",
"v.	c #CCCCCC",
"w.	c #F9AB44",
"x.	c #FDDCB3",
"y.	c #343434",
"z.	c #303030",
"A.	c #292929",
"B.	c #8B8B8B",
"C.	c #979797",
"D.	c #949494",
"E.	c #929292",
"F.	c #FBCF97",
"G.	c #FBD29C",
"H.	c #FBD29D",
"I.	c #191919",
"J.	c #545454",
"K.	c #DADADA",
"L.	c #F9AF4F",
"M.	c #AFAFAF",
"N.	c #B5B5B5",
"O.	c #818181",
"P.	c #FDEEDA",
"Q.	c #F89C26",
"R.	c #FBFBFB",
"S.	c #AAAAAA",
"T.	c #9B9B9B",
"U.	c #B1B1B1",
"V.	c #FDE9CF",
"W.	c #FCD39F",
"X.	c #FCD7A9",
"Y.	c #FBCC8F",
"Z.	c #2C2C2C",
"`.	c #585858",
" +	c #FCD4A1",
".+	c #A0A0A0",
"++	c #848484",
"@+	c #737373",
"#+	c #454545",
"$+	c #DEDEDE",
"%+	c #FFFDFA",
"&+	c #F89C24",
"*+	c #FEF8F1",
"=+	c #BFBFBF",
"-+	c #FCD097",
";+	c #F9AE4D",
">+	c #666666",
",+	c #C0C0C0",
"'+	c #FBC37A",
")+	c #EFEFEF",
"!+	c #FCD6A6",
"~+	c #FDEAD1",
"{+	c #474747",
"]+	c #FFFFFE",
"^+	c #767676",
"/+	c #FBCB8B",
"(+	c #838383",
"_+	c #A3A3A3",
":+	c #FBD097",
"<+	c #565656",
"[+	c #CACACA",
"}+	c #F2F2F2",
"|+	c #F7F7F7",
"1+	c #0F0F0F",
"2+	c #FEF2E1",
"3+	c #858585",
"4+	c #4B4B4B",
"5+	c #FCDBB0",
"6+	c #797979",
"7+	c #FBC783",
"8+	c #F8A437",
"9+	c #FCFCFC",
"0+	c #A6A6A6",
"a+	c #F9B256",
"b+	c #FEFEFD",
"c+	c #B0B0B0",
"d+	c #D0D0D0",
"e+	c #FEF5E9",
"f+	c #FDF0DF",
"g+	c #FCD7A8",
". . . . . . . . . . . . . . . . . . . . . . . . + @ # $ % & * = = * & % $ # @ + . . . . . . . . . . . . . . . . . . . . . . . . ",
". . . . . . . . . . . . . . . . . . . . . - ; > , ' ) ! ~ { ] ^ ^ ] { ~ ! ) ' , > ; - . . . . . . . . . . . . . . . . . . . . . ",
". . . . . . . . . . . . . . . . . . . / ( _ : < [ } } } } } } } } } } } } } } [ < : _ ( / . . . . . . . . . . . . . . . . . . . ",
". . . . . . . . . . . . . . . . . | 1 2 < } } } } } } } } } } } } } } } } } } } } } } < 2 1 | . . . . . . . . . . . . . . . . . ",
". . . . . . . . . . . . . . . 3 4 5 ] } } } } } } } } } } } } } } } } } } } } } } } } } } ] 5 4 3 . . . . . . . . . . . . . . . ",
". . . . . . . . . . . . . 6 7 8 ] } } } } } } } } } ^ 9 0 : 5 2 2 5 : 0 9 ^ } } } } } } } } } ] 8 7 6 . . . . . . . . . . . . . ",
". . . . . . . . . . . . a b c } } } } } } } } < d 1 8 e f g h i i h g f e 8 1 d < } } } } } } } } c b a . . . . . . . . . . . . ",
". . . . . . . . . . . j k ] } } } } } } [ ! _ l m n . . . . . . . . . . . . n m l _ ! [ } } } } } } ] k j . . . . . . . . . . . ",
". . . . . . . . . . o p } } } } } } [ ! q r - . . . . . . . . . . . . . . . . . . - r q ! [ } } } } } } p o . . . . . . . . . . ",
". . . . . . . . . s t } } } } } } < q u v . . . . . . . . . . . . . . . . . . . . . . v u q < } } } } } } t s . . . . . . . . . ",
". . . . . . . . w t } } } } } } ) x y . . . . . . . . . . . . . . . . . . . . . . . . . . y x ) } } } } } } t o . . . . . . . . ",
". . . . . . . j p } } } } } [ _ z . . . . . . . . . . . . . . . . . . . . . . . . . . . . . . z _ [ } } } } } p j . . . . . . . ",
". . . . . . A k } } } } } ^ k B . . . . . . . . . . . . . . . . . . . . . . . . . . . . . . . . B C D D D D D D E F . . . . . . ",
". . . . . G b ] } } } } ^ k H . . . . . . . . . . . . . . . . . . . . . . . . . . . . . . . . . . I J K K K K K L M . . . . . . ",
". . . . . 7 c } } } } [ k N . . . . . . . . . . . . . . . . . . . . . . . . . . . . . . . . . . . . . . . . . . . . . . . . . . ",
". . . . O 8 } } } } } _ B . . . . . P Q Q Q Q Q Q Q Q Q Q Q Q Q Q Q Q Q Q Q Q Q Q Q Q Q Q Q Q Q Q Q Q Q Q Q Q Q Q Q R S . . . . ",
". . . . T ] } } } } ) U . . . . . V W X X X X X X X X X X X X X X X X X X X X X X X X X X X X X X X X X X X X X X X Y Z . . . . ",
". . . m 5 } } } } < { . . . . . . `  .................................................................................+.@.. . . ",
". . . 1 ] } } } [ q #.. . . . . . $.%.................................................................................&.*.. . . ",
". . / 2 } } } } ! =.. . . . . . . -.;................................................................................... .>.. . ",
". . ,.< } } } [ '.).. . . . . . . +.&...................................................................................!.~.. . ",
". {._ } } } } ! ].. . . . . . . ^./...........&.!.!.!.!.!.!.!.!.!.!.!.!.!.!.!.!.!.!.!.!.!.!.!.!.!.!.!.!.!.!.!.!.!.!.!.!.!.(._.. ",
". :.: } } } } _ - . . . . . . . <.[.........&...}.|.|.|.|.|.|.|.|.|.|.|.|.|.|.|.|.|.|.|.|.|.|.|.|.|.|.|.|.|.|.|.|.|.|.|.|.1.2.. ",
". 3.< } } } < l . . . . . . . . 4.+.........%.5.. . . . . . . . . . . . . . . . . . . . . . . . . . . . . . . . . . . . . . . . ",
". , [ } } } d m . . . . . . . . 6.7.........8.9.. . . . . . . . . . . . . . . . . . . . . . . . . . . . . . . . . . . . . . . . ",
"0.' } } } } 1 a.. . . . . . . . b.c.........d.e.. . . . . . . . . . . . . . . . . . . . . . . . . . . . . . . . . . . . . . . . ",
"# ) } } } ^ 8 . . . . . . . . . X f.......f.Z . . . . . . . . . . . . . . . . . . . . . . . . . . . . . . . . . . . . . . . . . ",
"$ ! } } } 9 & . . . . . . . . P X ........!.g.. . . . . . . . . . . . . . . . . . . . . . . . . . . . . . . . . . . . . . . . . ",
"% ~ } } } 0 f . . . . . . . . h.i.........j.k.. . . . . . . . . . . . . . . . . . . . . . . . . . . . . . . . . . . . . . . . . ",
"l.{ } } } : m.. . . . . . . . n.o.........p.q.. . . . . . . . . . . . . . . . . . . . . . . . . . . . . . . . . . . . . . . . . ",
"r.s.} } } 5 t.. . . . . . . . u.j.........i.v.. . . . . . . . . . . . . . . . . . . . . . . . . . . . . . . . . . . . . . . . . ",
"w.[ } } } 2 x.. . . . . . . . y.z.........A.B.C.D.D.D.D.D.D.D.D.D.E.C.. . . . . a F.G.G.G.G.G.G.G.G.G.G.G.G.G.G.G.G.G.G.G.G.G.H.",
"w.[ } } } 2 x.. . . . . . . . I.f...........A.p.p.p.p.p.p.p.p.p.p.d.J.. . . . . o 1 ) ) ) ) ) ) ) ) ) ) ) ) ) ) ) ) ) ) ) ) ) ! ",
"r.s.} } } 5 h . . . . . . . K.d...................................o.5.. . . . . L.< } } } } } } } } } } } } } } } } } } } } s.r.",
"l.{ } } } : m.. . . . . . . M. ...................................8.N.. . . . . T ^ } } } } } } } } } } } } } } } } } } } } { l.",
"% ~ } } } 0 f . . . . . . . O.%...................................d.e.. . . . G _ } } } } } } } } } } } } } } } } } } } } } ~ % ",
"$ ! } } } 9 & . . . . . . . J.;.................................f.Z . . . . . P.D } } } } } } } } } } } } } } } } } } } } } ! $ ",
"# ) } } } ^ 8 . . . . . . . o.&.........&.+.+.+.+.+.+.+.+.+.+.+.i.7.. . . . . F Q.5 5 5 5 5 5 5 5 5 5 5 5 5 5 5 0 } } } } } ) # ",
"0.' } } } } 1 n . . . . . R.Z ........&.&.S.4.4.4.4.4.4.4.4.4.4.T.U.. . . . . V.W.# # # # # # # # # # # # # # X.Y.0 } } } } ' 0.",
". , [ } } } d m . . . . . v.[.........Z.`.. . . . . . . . . . . . . . . . . . . . . . . . . . . . . . . . . . .  +d } } } [ , . ",
". 3.< } } } < l . . . . . .++.........%.++. . . . . . . . . . . . . . . . . . . . . . . . . . . . . . . . . . . l < } } } < 3.. ",
". :.: } } } } _ - . . . . @+A.........8.9.. . . . . . . . . . . . . . . . . . . . . . . . . . . . . . . . . . - _ } } } } : :.. ",
". - _ } } } } ! ].. . . . #+c.........d.$+. . . . . . . . . . . . . . . . . . . . . . . . . . . . . . . . . . ].! } } } } _ - . ",
". . ,.< } } } [ '.%+. . . *.f.......f.Z . . . . . . . . . . . . . . . . . . . . . . . . . . . . . . . . . . %+'.[ } } } < ,.. . ",
". . / 2 } } } } ! =.. . Q X ........!.1.. . . . . . . . . . . . . . . . . . . . . . . . . . . . . . . . . . =.! } } } } 2 / . . ",
". . . 1 ] } } } [ &+*+. =+i.........j.k.. . . . . . . . . . . . . . . . . . . . . . . . . . . . . . . . . #.q [ } } } ] 1 . . . ",
". . . m 5 } } } [ _ . . E.p.........p.q.. . . . . . . . . . . . . . . . . . . . . . . . . . . . . . . . . { < } } } } 5 -+. . . ",
". . . . ' ] } } < ;+. . >+j.........i.,+. . . . . . . . . . . . . . . . . . . . . . . . . . . . . . . . U ) } } } } ] ' . . . . ",
". . . . O 8 } } 0 '+. . ~.!.........Y )+. . . . . . . . . . . . . . . . . . . . . . . . . . . . . . . B _ } } } } } 8 O . . . . ",
". . . . . 7 c } 5 !+. . Z f.......f.d.. . . . . . . . . . . . . . . . . . . . . . . . . . . . . . . N k [ } } } } c 7 . . . . . ",
". . . . . G b ] T ~+. _.d.........c.{+. . . . . . . . . . . . . . . . . . . . . . . . . . . . . . H k ^ } } } } ] b G . . . . . ",
". . . . . . A k b ]+. U.8.........A.^+. . . . . . . . . . . . . . . . . . . . . . . . . . . . . B k ^ } } } } } k A . . . . . . ",
". . . . . . . /+'.. . (+%.........+._+. . . . . . . . . . . . . . . . . . . . . . . . . . . . z _ [ } } } } } p j . . . . . . . ",
". . . . . . . . :+. . <+Z.........[.[+. . . . . . . . . . . . . . . . . . . . . . . . . . #.x ) } } } } } } t o . . . . . . . . ",
". . . . . . . . . . . A.&.........Y }+. . . . . . . . . . . . . . . . . . . . . . . . v u q < } } } } } } t s . . . . . . . . . ",
". . . . . . . . . . |+1+........&.[.. . J s 2+. . . . . . . . . . . . . . . . . . 2+].q ! [ } } } } } } p w . . . . . . . . . . ",
". . . . . . . . . . . 3+(.&.....;.4+. . 5+_ _ l m n . . . . . . . . . . . . n m l _ ! [ } } } } } } ] k j . . . . . . . . . . . ",
". . . . . . . . . . . . =+Z Z...A.6+. . 7+8+} < d 1 8 e f g h i i h g f e 8 1 d < } } } } } } } } c b A . . . . . . . . . . . . ",
". . . . . . . . . . . . . 9+{+*.8.0+. . a+~ } } } } ^ 9 0 : 5 2 2 5 : 0 9 ^ } } } } } } } } } ] 8 7 b+. . . . . . . . . . . . . ",
". . . . . . . . . . . . . . . c+1+d+. . 1 ^ } } } } } } } } } } } } } } } } } } } } } } } ] 5 4 3 . . . . . . . . . . . . . . . ",
". . . . . . . . . . . . . . . . . ^.. e+, } } } } } } } } } } } } } } } } } } } } } } < 2 1 | . . . . . . . . . . . . . . . . . ",
". . . . . . . . . . . . . . . . . . . f+{ _ : < [ } } } } } } } } } } } } } } [ < : _ ( g+. . . . . . . . . . . . . . . . . . . ",
". . . . . . . . . . . . . . . . . . . . . - :.> , ' ) ! ~ { ] ^ ^ ] { ~ ! ) ' , > :.- . . . . . . . . . . . . . . . . . . . . . ",
". . . . . . . . . . . . . . . . . . . . . . . . + @ # $ % & * = = * & % $ # @ + . . . . . . . . . . . . . . . . . . . . . . . . "};
