/* XPM */
static char *ef619d3dc66548cf93716dbf5e0ac99d[] = {
/* columns rows colors chars-per-pixel */
"32 32 256 2 ",
"   c #3F3000",
".  c #3C351E",
"X  c #403100",
"o  c #4C3A00",
"O  c #463808",
"+  c #4A3C0A",
"@  c #483E1A",
"#  c #433C26",
"$  c #554101",
"%  c #52420A",
"&  c #5E4A09",
"*  c #574A1F",
"=  c #53471F",
"-  c #634C00",
";  c #6C5201",
":  c #66500A",
">  c #6C560E",
",  c #745B05",
"<  c #7A5E01",
"1  c #725B0D",
"2  c #624F11",
"3  c #725C10",
"4  c #7D6101",
"5  c #4C4426",
"6  c #534924",
"7  c #5A4D24",
"8  c #51492D",
"9  c #514726",
"0  c #5D522C",
"q  c #5E5126",
"w  c #554D33",
"e  c #5F5534",
"r  c #6D5C22",
"t  c #62572D",
"y  c #65592E",
"u  c #6A5B29",
"i  c #665B33",
"p  c #6B5E33",
"a  c #796520",
"s  c #74642E",
"d  c #6E6137",
"f  c #6D623B",
"g  c #72663C",
"h  c #76693E",
"j  c #7A6C3D",
"k  c #756734",
"l  c #726741",
"z  c #766A42",
"x  c #7A6E43",
"c  c #7A6F48",
"v  c #7D7146",
"b  c #7D724A",
"n  c #826501",
"m  c #876800",
"M  c #8A6C05",
"N  c #8A6E0B",
"B  c #866A0C",
"V  c #8E7007",
"C  c #8E710E",
"Z  c #92740D",
"A  c #9D7C0D",
"S  c #856D1D",
"D  c #8A6F12",
"F  c #8F751D",
"G  c #937611",
"H  c #9A7C13",
"J  c #9A7C17",
"K  c #826D28",
"L  c #9A7F20",
"P  c #937C2C",
"I  c #826F30",
"U  c #8F7931",
"Y  c #82723A",
"T  c #88773B",
"R  c #917B34",
"E  c #917E3C",
"W  c #857643",
"Q  c #877945",
"!  c #8C7D46",
"~  c #81754A",
"^  c #86794A",
"/  c #8A7C4C",
"(  c #867A52",
")  c #8A7E53",
"_  c #817655",
"`  c #9F811A",
"'  c #A1831B",
"]  c #A48212",
"[  c #9D8227",
"{  c #9A8438",
"}  c #9E893E",
"|  c #9D8634",
" . c #A28524",
".. c #A68923",
"X. c #A98B25",
"o. c #A38729",
"O. c #A48A2D",
"+. c #A98C2C",
"@. c #AF9129",
"#. c #B1942E",
"$. c #A08732",
"%. c #A38C3D",
"&. c #A88E34",
"*. c #AE9333",
"=. c #AF9539",
"-. c #B19433",
";. c #B79B37",
":. c #BB9D34",
">. c #B3983A",
",. c #BB9F3C",
"<. c #B2923A",
"1. c #BFA13D",
"2. c #C2A43D",
"3. c #C7A83E",
"4. c #988440",
"5. c #9E8C4D",
"6. c #958445",
"7. c #8E8154",
"8. c #8F835B",
"9. c #958653",
"0. c #978856",
"q. c #9B8D54",
"w. c #92855A",
"e. c #95885C",
"r. c #988B5D",
"t. c #A28D44",
"y. c #A08D4B",
"u. c #AB9343",
"i. c #A6924A",
"p. c #AA944C",
"a. c #B79740",
"s. c #B79D44",
"d. c #B69E49",
"f. c #B99C46",
"g. c #A08E54",
"h. c #A19056",
"j. c #A99654",
"k. c #AD9852",
"l. c #A2945D",
"z. c #AB9B5C",
"x. c #B19D5B",
"c. c #B19D57",
"v. c #BDA246",
"b. c #BDA44C",
"n. c #BCA552",
"m. c #BFA855",
"M. c #B6A25B",
"N. c #BBA65B",
"B. c #B5A055",
"V. c #8D8364",
"C. c #928761",
"Z. c #968A63",
"A. c #9A8D62",
"S. c #9A8F68",
"D. c #978C69",
"F. c #9D9166",
"G. c #9D926C",
"H. c #87847A",
"J. c #928E7F",
"K. c #9E967C",
"L. c #9F9574",
"P. c #A49765",
"I. c #A99963",
"U. c #A1956B",
"Y. c #A6996D",
"T. c #A09570",
"R. c #A59A74",
"E. c #AA9D72",
"W. c #A0987D",
"Q. c #A99F7D",
"!. c #ABA46A",
"~. c #B7A962",
"^. c #BAA868",
"/. c #B0A16A",
"(. c #BAB167",
"). c #ADA17A",
"_. c #B8A871",
"`. c #B4A779",
"'. c #BFB674",
"]. c #C2A642",
"[. c #CCAE46",
"{. c #C3A549",
"}. c #C8AC49",
"|. c #C4A846",
" X c #CEB14D",
".X c #D0B34C",
"XX c #C4AB54",
"oX c #C8AE51",
"OX c #C5AE5A",
"+X c #CCB45C",
"@X c #CEB454",
"#X c #D3B651",
"$X c #D7B954",
"%X c #DBBD55",
"&X c #D4B95C",
"*X c #DABE5C",
"=X c #C1AC62",
"-X c #CFB662",
";X c #C7B269",
":X c #CFBB6A",
">X c #C8B664",
",X c #D2BA63",
"<X c #C7B578",
"1X c #C7B875",
"2X c #D3BE74",
"3X c #DFC159",
"4X c #E1C35C",
"5X c #CCC26E",
"6X c #DAC56A",
"7X c #DACB6F",
"8X c #D8C368",
"9X c #DFC772",
"0X c #D5C17A",
"qX c #D6CE78",
"wX c #DAC775",
"eX c #E3C661",
"rX c #E9CE6F",
"tX c #E9CB62",
"yX c #EED16D",
"uX c #E4CA73",
"iX c #E3CD7D",
"pX c #E1D575",
"aX c #EAD679",
"sX c #F7D971",
"dX c #FBDE76",
"fX c #FADD7B",
"gX c #F3D77A",
"hX c #9B9581",
"jX c #9F9881",
"kX c #9C998D",
"lX c #A49D87",
"zX c #A89F82",
"xX c #A09D92",
"cX c #A7A087",
"vX c #A9A289",
"bX c #ABA181",
"nX c #B1A98D",
"mX c #D8C580",
"MX c #CFC39A",
"NX c #D6C896",
"BX c #D4C695",
"VX c #EAD384",
"CX c #ECD68A",
"ZX c #EED889",
"AX c #F4DC88",
"SX c #EBD997",
"DX c #F2DD94",
"FX c #FEE483",
"GX c #FFEA8E",
"HX c #FEEF94",
"JX c #F8E397",
"KX c #FFF19E",
"LX c #D2CBAB",
"PX c #EFDEA1",
"IX c #F4E5AE",
"UX c None",
/* pixels */
"UXUXUXUXUXUXUXUXUXUXUXUXUXUXUXUXUXUXUXUXUXUXUXUXUXUXUXUXUXUXUXUX",
"UXUXUXUXUXUXUXUXUXUXUX6.a 2 % + + % > S } UXUXUXUXUXUXUXUXUXUXUX",
"UXUXUXUXUXUXUXUXUXN.$.D < - o X   o - < C o.d.UXUXUXUXUXUXUXUXUX",
"UXUXUXUXUXUXUXBXd.` Z G n - % O + & , M Z G J -.wXUXUXUXUXUXUXUX",
"UXUXUXUXUXUXNX>.C H ..[ r @ w # . 5 7 r R [ ` C  .0XUXUXUXUXUXUX",
"UXUXUXUXUX<X .V o.u.Y f i 9 w # # # 7 d z j R +.Z N =XUXUXUXUXUX",
"UXUXUXUXk.N 4 &.h.z d h h q # # 8 e g x d y i ) [ 4 , $.UXUXUXUX",
"UXUXUXY ; - G 9.f j g g j h 5 f ~ z v x d h j y c S - $ 3 UXUXUX",
"UXUXUX: - ; I 0 d v v h ~ ~ f ( h p g ~ ~ x g g i t & $ $ UXUXUX",
"UXUXK n < : 9 y q b h x ~ x ) S.h p x ( x x g t 0 8 = - ; , UXUX",
"UXUXL ` V u = 7 i x / / 9.9.P.I.W Q ! ! / ! s u d h p 1 m C UXUX",
"UXx.X.X.P l h * i g >X,X-X-X+XOX{.a.<.-.....+.<.a.{.i.s '  .*.UX",
"UXm...#.T x ~ ~ y Q 8X-X+X+X+XOXn.>.=.+.' '  .+.<.f.W b &.X.,.UX",
"UXb.J *.^ z ~ ~ x x.6XN.7.r.e.) x / ^ ^ j k j Y j h ~ ~ %.@.1.UX",
"UX>.V O.v h ~ h x :X8Xl.G.S.8._ ~ ) ) S.G.V.G.) ( ( / _ y.#.v.UX",
"MX&.< | h h h z 6.7X:Xz.z.h.h.q.( / q.5.5.y.g.e.e.w.~ x q.:.|.DX",
"LXt.; { h h p f ~.7X,X&X+X,X,Xh.( 9.#...` A R S.w.w.e.) l.:.oXIX",
"UXi.; { b h 7 x 7X8X>Xn.m.OXB.7.C.t.+.o.' H 9.U.) ( 8.b h.2.+XUX",
"UXb.m O.7.7.f q.pX>X7.8.~ ~ ~ e.e.~ x R ] F F.A.) x ~ g i.3.&XUX",
"UXOX..*.6.b 8.5XpX~.8.U.T.~ ( Z.F.U.8.o.A E Z.w.P.( U.( d.[.*XUX",
"UX(.2.2.i.w.P.qX7Xq.C.l.N.N.x.c.M.i.%...J ) ) A.Y.8.U.0.}.#X$XUX",
"UX_.}.#Xb.e.'.aX5XZ.F.m.@X+X+XoXv.;.#...P e.~ w.A.A.) k.$X.X}.UX",
"UXUXn.$X3Xi.!.(.l.U.e.i.k.j.j.j.t.t.{ U w.F.) ) A.F.7. X*X|.UXUX",
"UXUXz.[.eX$X7.b S.w.Z.C.V.D.V.hXT.R.G.G.Y.U.w.~ 8.D.d.%X#X-.UXUX",
"UXUXUXN.3XeX$XY.F.A.A.U.U.Y.Y.vXnX).bX`.E.U.A.) b p..X#X,.UXUXUX",
"UXUXUXUX8X4X%X,XR.) P.Y.S.C.Q.zXjX).bXR.R.Y.P.D.p.2.]. XUXUXUXUX",
"UXUXUXUXUXaX*X[.-X^.Q.R.K.lXvXK.nXlXlXlXkXW.E.:X.X].*XUXUXUXUXUX",
"UXUXUXUXUXUXPX*X[.3X,X/.K.J.H.H.kXxXkXK.).2XyXtX3XCXUXUXUXUXUXUX",
"UXUXUXUXUXUXUXSXtXeXsXdXrX0X<X_._.<X2XuXfXFXfXgXJXUXUXUXUXUXUXUX",
"UXUXUXUXUXUXUXUX0X9XrXfXGXHXKXKXKXKXHXGXFXgXgXAXUXUXUXUXUXUXUXUX",
"UXUXUXUXUXUXUXUXUXUXUX0XiXiXVXZXZXCXVXuX9XUXUXUXUXUXUXUXUXUXUXUX",
"UXUXUXUXUXUXUXUXUXUXUXUXUXUXUX;X;XUXUXUXUXUXUXUXUXUXUXUXUXUXUXUX"
};
