/* XPM */
static char *ad60e04430ce4721d7b23b9423fefa9b[] = {
/* columns rows colors chars-per-pixel */
"64 64 256 2 ",
"   c #392C00",
".  c #342D15",
"X  c #3B341B",
"o  c #443501",
"O  c #4C3A01",
"+  c #4C3E0E",
"@  c #513E00",
"#  c #433A1C",
"$  c #473C17",
"%  c #443D26",
"&  c #554101",
"*  c #5A4501",
"=  c #584609",
"-  c #4D421B",
";  c #584A1A",
":  c #634D01",
">  c #654E05",
",  c #6B5302",
"<  c #685207",
"1  c #745A01",
"2  c #795E01",
"3  c #735904",
"4  c #6D5916",
"5  c #7D6101",
"6  c #7D640C",
"7  c #786318",
"8  c #4B4225",
"9  c #4D452D",
"0  c #5B4E24",
"q  c #544B2A",
"w  c #554A25",
"e  c #5D522C",
"r  c #5E5226",
"t  c #544C32",
"y  c #5D5435",
"u  c #5A543B",
"i  c #62552B",
"p  c #66592E",
"a  c #685A2B",
"s  c #665A33",
"d  c #6A5D33",
"f  c #655B39",
"g  c #705F27",
"h  c #74632B",
"j  c #6E6136",
"k  c #6D623B",
"l  c #72653A",
"z  c #75693E",
"x  c #7C6D3C",
"c  c #786833",
"v  c #6C6242",
"b  c #716743",
"n  c #756A43",
"m  c #7A6D42",
"M  c #776D4A",
"N  c #7E7146",
"B  c #7E724B",
"V  c #7D7453",
"C  c #7E7A6D",
"Z  c #675E41",
"A  c #836502",
"S  c #866905",
"D  c #896C06",
"F  c #8A6E0A",
"G  c #84690A",
"H  c #8E710D",
"J  c #97780C",
"K  c #866D15",
"L  c #8D7216",
"P  c #937612",
"I  c #967915",
"U  c #9A7C14",
"Y  c #9B7E1A",
"T  c #957918",
"R  c #967C25",
"E  c #83733C",
"W  c #8C7A3D",
"Q  c #8A7635",
"!  c #85702A",
"~  c #A07F10",
"^  c #837544",
"/  c #8C7C44",
"(  c #82754B",
")  c #86794E",
"_  c #897C4C",
"`  c #887743",
"'  c #817753",
"]  c #857A52",
"[  c #8A7E53",
"{  c #857C5A",
"}  c #897E59",
"|  c #857D67",
" . c #9E811C",
".. c #A2841C",
"X. c #A6861B",
"o. c #9D8228",
"O. c #9C8638",
"+. c #A38622",
"@. c #A68924",
"#. c #A98B24",
"$. c #AA8D2B",
"%. c #A5892A",
"&. c #AE912D",
"*. c #B1942E",
"=. c #A78C35",
"-. c #AD9234",
";. c #A8913F",
":. c #B29533",
">. c #B59835",
",. c #BA9C35",
"<. c #B1943A",
"1. c #B4993C",
"2. c #BA9D3B",
"3. c #B8973C",
"4. c #BEA13C",
"5. c #BFA137",
"6. c #C2A43C",
"7. c #C8A93E",
"8. c #93834B",
"9. c #9B894C",
"0. c #958345",
"q. c #8E8155",
"w. c #8D825A",
"e. c #918453",
"r. c #92855A",
"t. c #95895D",
"y. c #9B8C56",
"u. c #938852",
"i. c #A18E4A",
"p. c #AB9444",
"a. c #AC964A",
"s. c #B59B44",
"d. c #BB9D45",
"f. c #B49A4A",
"g. c #A6965A",
"h. c #B29C53",
"j. c #A08F52",
"k. c #BCA243",
"l. c #BBA24B",
"z. c #BCA552",
"x. c #B9A45B",
"c. c #B8A65C",
"v. c #ADA35E",
"b. c #8C8364",
"n. c #958A63",
"m. c #9A8E63",
"M. c #948B6B",
"N. c #938964",
"B. c #9E9166",
"V. c #9D916B",
"C. c #8C8776",
"Z. c #9B9273",
"A. c #9C957C",
"S. c #928D78",
"D. c #A29465",
"F. c #AB9B61",
"G. c #A2956A",
"H. c #A5996D",
"J. c #A99C6C",
"K. c #A69A73",
"L. c #A99D73",
"P. c #A49B7B",
"I. c #A69B77",
"U. c #B09F66",
"Y. c #B7A667",
"T. c #AEA175",
"R. c #ACA17B",
"E. c #B1A57A",
"W. c #B7A979",
"Q. c #B1A66B",
"!. c #C3A642",
"~. c #C6A945",
"^. c #CAAC45",
"/. c #CAAE4A",
"(. c #C3A84C",
"). c #CEB14D",
"_. c #CEB046",
"`. c #D1B34D",
"'. c #C4AB54",
"]. c #C4AD59",
"[. c #C8AD55",
"{. c #CBB35C",
"}. c #CBB356",
"|. c #D3B652",
" X c #D6B955",
".X c #DABC56",
"XX c #DABD59",
"oX c #D4BA5D",
"OX c #C3AE67",
"+X c #CCB562",
"@X c #C9B668",
"#X c #D2BB63",
"$X c #D4BE6A",
"%X c #D1B760",
"&X c #CEBA72",
"*X c #C7B877",
"=X c #D1BE7D",
"-X c #DDC15D",
";X c #E1C35E",
":X c #DEC365",
">X c #D5C36A",
",X c #DBC46D",
"<X c #D7C76B",
"1X c #D6CC74",
"2X c #DCCD73",
"3X c #D9C476",
"4X c #DDD47A",
"5X c #DBD175",
"6X c #CDC370",
"7X c #E2C662",
"8X c #E4C96C",
"9X c #E9CC67",
"0X c #EED16C",
"qX c #E4CB73",
"wX c #E4CD79",
"eX c #ECD376",
"rX c #F3D673",
"tX c #F9DC75",
"yX c #F7DB7A",
"uX c #F6D76E",
"iX c #FEE27E",
"pX c #FEE077",
"aX c #9B9685",
"sX c #939188",
"dX c #A39E8B",
"fX c #A59D83",
"gX c #A09D92",
"hX c #AAA285",
"jX c #AAA38B",
"kX c #B4AA84",
"lX c #A9A594",
"zX c #BBB39A",
"xX c #BEB185",
"cX c #B8B5A6",
"vX c #C6B889",
"bX c #C5BB99",
"nX c #C3BEA8",
"mX c #D7C482",
"MX c #CCC199",
"NX c #D5C99F",
"BX c #E9D589",
"VX c #F6DD87",
"CX c #EAD794",
"ZX c #FDE384",
"AX c #FDE48A",
"SX c #FDE693",
"DX c #FCE69A",
"FX c #FFEB9C",
"GX c #FEE995",
"HX c #CAC6B7",
"JX c #E6D9A9",
"KX c #FEEBA3",
"LX c #F9E8AA",
"PX c #F9EBB9",
"IX c #F0E6C2",
"UX c None",
/* pixels */
"UXUXUXUXUXUXUXUXUXUXUXUXUXUXUXUXUXUXUXUXUXUXUXUXUXUXUXUXUXUXUXUXUXUXUXUXUXUXUXUXUXUXUXUXUXUXUXUXUXUXUXUXUXUXUXUXUXUXUXUXUXUXUXUX",
"UXUXUXUXUXUXUXUXUXUXUXUXUXUXUXUXUXUXUXUXUXUXUXUXUXUXUXUXUXUXUXUXUXUXUXUXUXUXUXUXUXUXUXUXUXUXUXUXUXUXUXUXUXUXUXUXUXUXUXUXUXUXUXUX",
"UXUXUXUXUXUXUXUXUXUXUXUXUXUXUXUXUXUXUXUXUXUXUXUX{ E c 4 ; = = + = + = < 6 ! W 8.UXUXUXUXUXUXUXUXUXUXUXUXUXUXUXUXUXUXUXUXUXUXUXUX",
"UXUXUXUXUXUXUXUXUXUXUXUXUXUXUXUXUXUXUXUXUXV.9.R G , * O o o           O @ : 2 L o.p.g.UXUXUXUXUXUXUXUXUXUXUXUXUXUXUXUXUXUXUXUXUX",
"UXUXUXUXUXUXUXUXUXUXUXUXUXUXUXUXUXUXUXT.h.-.P 3 > , , : * @ o o o o O * * : , 1 5 I $.k.].UXUXUXUXUXUXUXUXUXUXUXUXUXUXUXUXUXUXUX",
"UXUXUXUXUXUXUXUXUXUXUXUXUXUXUXUXUXxX+X5. .G F H H S 1 : @ O o o o o @ * * 1 A A S D F P #.[.$XUXUXUXUXUXUXUXUXUXUXUXUXUXUXUXUXUX",
"UXUXUXUXUXUXUXUXUXUXUXUXUXUXUXbX3X`.X.H P Y Y I S 2 : * O o o o o o @ * : 1 2 A F P Y U L P *.7XBXUXUXUXUXUXUXUXUXUXUXUXUXUXUXUX",
"UXUXUXUXUXUXUXUXUXUXUXUXUXUXNXwX3.P P Y Y Y I F A 1 , : = = + + ; ; ; < 3 5 D H P P Y Y Y Y H P }.CXUXUXUXUXUXUXUXUXUXUXUXUXUXUX",
"UXUXUXUXUXUXUXUXUXUXUXUXHXJX3Xo.H Y Y Y T I I U L 7 = $ t u 9 . X % t y f a 4 ! %...U I Y Y ..T D 1.JXIXUXUXUXUXUXUXUXUXUXUXUXUX",
"UXUXUXUXUXUXUXUXUXUXUXHXJXOXL J  .Y Y P ..:.p.` d 8 8 . % u 9 % . . . # q 0 $ s m / =.@.I T Y Y Y H Y BXPXUXUXUXUXUXUXUXUXUXUXUX",
"UXUXUXUXUXUXUXUXUXUXHXBX'.F I Y Y I U 2.a.` f p k i e # u u . 9 X % q X $ ; a l k k b [ p.+.I U Y Y D G 3XLXUXUXUXUXUXUXUXUXUXUX",
"UXUXUXUXUXUXUXUXUXzX,Xs.A P Y Y H &.@Xy.i d p z l p e t 9 Z . % t t 8 $ i j l z z m x p 0 D.d.U T P L A 3 OXBXUXUXUXUXUXUXUXUXUX",
"UXUXUXUXUXUXUXUXlX'.$.1 D P T H '.kXn z j l l n m k p $ 8 f X X # X q f d l n m ^ k r d r 0 N.U. .F F D A , d.#XUXUXUXUXUXUXUXUX",
"UXUXUXUXUXUXUXgXp.Y > A S F H @XI.s l m l m z n j z k - # % # % i u f f k b m z i i j z a l z b m. .5 5 2 , : o.f.UXUXUXUXUXUXUX",
"UXUXUXUXUXUXUXW D : , 2 5 A {.V.a l x n l a x z j n n j 8 # X b r.b v k z m N d l z a d z ^ z ; k D.L 3 , , * & L UXUXUXUXUXUXUX",
"UXUXUXUXUXUXV 1 * : : 3 1 2.[ p z z z N ( a j N _ k x n k 9 Z B.( k M ( ( _ [ [ j d n ( ( n 0 k d f 8.5 : * : O O 6 UXUXUXUXUXUX",
"UXUXUXUXUXC 4 * : < : : T / r 0 i m z m B m p m m ( ( z b y z m.x j M l j z j j m ) ) N j i k l d i e c > @ * * O * 4 UXUXUXUXUX",
"UXUXUXUXUXc > : 1 , : 3 Q e i l 0 z m N N ) N z ( ( r.m z n m [ l r j p i k ^ [ [ ( z d l x z j d e q e > @ @ * * @ < UXUXUXUXUX",
"UXUXUXUX| A , A 5 , , < w e p d ; p N ^ x d ) ( ( ( ^ n b r.r.B.[ i p j j m.} _ m l z B B m j l l y y # 8 = @ * > > , G UXUXUXUX",
"UXUXUXUX/ A S I A 2 , w # $ f e - i N ( ( d l q.( ( ] z [ D.t.m.} i ^ _ d ) [ l x ) ) ( x d ; w e q y e f i , , , 5 1 A UXUXUXUX",
"UXUXUXS.o.D Y Y H A 4 p d $ 0 k i e m N ( ( k N ] ( ] B V.V.G.m._ i d [ ( k M ) } ' ) b i ; q w 8 t y y e % > 2 2 A A D R UXUXUX",
"UXUXUXD.X.T #.+.P F a d j - - e l d l N ( y.j.9.g.g.y.g.F.g.U.F.8.` ` 9.0.9.9.9.0.0.0.W W c ` ` ` ^ E E h c a G D H I L %.UXUXUX",
"UXUXUXh.#.+.$.@. .! l l l r ; - i b j n F.:X#X#X%X%X%X+X{.{.].].'.(.d.3.:.:.:.&.#.#.X.#.#.$.$.<.3.d.d.l.).f.y K I Y ..U $.UXUXUX",
"UXUXjXk.#.@.$.%.@.N m m ( N 0 0 e N l l @X>X{.{.+X%X+X+X{.{.].].(.d.d.3.3.<.-.=.#.X.+.+.#.%.$.-.<.3.d.f.'.x f E ....+.+.*.(.UXUX",
"UXUXW.6.%.$.$.&.=.d N N ( [ N j a i d 8.<X#X%X{.{.+X%X+X{.{.].].z.f.s.1.<.-.-.$.@.....+.@.%.$.=.<.3.s.(.a.f N ( %.$.$.$.&./.UXUX",
"UXUXOX,.+.$.#.*.i.s m ( B j [ t.j p p v.2X+X{.#X#X#X%X%X#X%X%X{.[.(.k.2.>.>.:.&.X.X.X.X.X.#.$.:.<.3.d.d.x N ) B O.&.$.&.$.).UXUX",
"UXUX{.*. .@.+.,.u.m j ) ) m z t.[ k [ $X>X+X+X{.8.` e.t._ ` q.q.x x ` x _ E E x c h h h h h c j x E x k M [ ( m 8.*.&.*.$.).UXUX",
"UXzX}.#.Y  . .2.( ( j m ) ) l l [ l u.2X>X#X#X_ V { N.{ M.[ { M k v ' N.B { V r.} b b n M M M ' M f f m q.( ( N e.>.*.:.$._.qXUX",
"UXzX}.Y I P U s.z ^ m j ) _ m j l z c.2X#X#Xc.B.H.J.D.T.L.m.r._ ^ ( r.u.N m.e.q.t.D.[ [ J.t.t.[ ( ( ^ [ [ _ w.( q.1.*.>.&./.eXUX",
"UXvX/.P H P U h.k m N j m ) ( l j t.1X>X>X:Xc.r.H.E.G.r._ [ [ [ ( ) ) ( ) ( G.t.L.m.t.[ B.m.( r.[ r.r.[ [ x r.) ] s.>.>.*.~.yXUX",
"UXvX_.F D S I h.f z N z d N ( m p 9.5X>X$X-Xe.w.K.q.] ] [ [ [ [ ) ) ( [ B.r.R.n.t.K.V.n.L.G.r.m.} [ [ r.[ ) l ) } h.,.>.:.(.VXUX",
"UXbX[.A A 2 P F.d j z m d l N N p c.qX>X$X%Xc.c.h.x.x.c.x.x.x.u.] [ [ [ i.a.O.O.O.=.O.=.=.9.m.r.y.t.m.} ) m m ( } h.,.,.:.(.LXUX",
"UXMXOX6 2 1 L Q.s j j ) ( i m n N <X>X>X>X+XoX}.}.+X+X+X+X%X].) q.q.w.9.*.$.$.@...J ~ J J ` G.m.m.t.[ [ q.r.q.( V F.,.2.,.'.LXUX",
"UXMXOX2 2 2 7 T.l l z z i 0 z z v.5X>X>X#X%X{.].[.].+X+XOX#Xj.[ r.q.q.;.&.$.=.%.....Y  .R } G.m.r.[ t.m.[ m.t._ V.OX5.2.,.}.PXUX",
"UXMX{.6 1 1 6 OXe z q.r 0 r s B @X5X<X>X#X#X{.].{.[.{.{.%X%X_ } t.q.q.1.:.$.$.X...J  .J Q V.r.B.m.( ( D.m.G.e.[ N.x.2.!.,.%XLXUX",
"UXnX6XL 2 5 D Q.N z _ z i a p y.4X<X>X>X>X'.'.'.].].].].].j.' y.t.q.9.>.-.$.%.@.X. .J J _ G.G.G.m.m ( ( ) N l l M z.6.!.2.,XPXUX",
"UXnX$X .5 F D l.N m ( ) m j s v.4X<X<X6Xe.n v M v b b n v b } t.t.t.m f f l l +.X.J  .L n.E.B.q.m.( N m n n m l ] '.!.~.6.qXLXUX",
"UXcX$X$.F  . .1.u.] u.t.B j N 6X5X<X<Xc.{ r.t.K.[ ( [ ] [ t.t.m.n.t.w.q.q.V W +.X.J J ! V.G.t.n.q.( ^ ( ( t.( k e./.~.~.6.qXSXUX",
"UXUX$X5. .+.+.,.u.j n B.n ] J.4X1X1X<Xv.r.r.H.kXE.[ ) ( ( } m.m.t.m.m.B.D.) o.@. . .P ] B.B.q.( t.K.( ( B.m.e.k j._.~.~.~.0XUXUX",
"UXUX*X^.$.&.&.,.;.' n t.t.N.6X4X1X1X#Xw.G.m.e.t.E.G.} ( ( [ b.m.m.H.L.H.V q.%.+. . .! V.t.) ( L.T.G.[ ) H.L.B.m f.`._.^.}.0XUXUX",
"UXUXxX_.>.>.2.6.s.q.u.m.n.B.4X1X1X5Xv.w.u.( V.m.g.Q.D.g.y.j.g.y.U.Q.g.0.y.p.$.+...J / q.q.] q.L.B.m.m.) G.K.B.x ~.)././. X7XUXUX",
"UXUXjX}.6.!.!.^.4.j.n.t.r.Q.mX1X1X<Xu.( t.K.G.z.[.{.{.{.{.{.'.(.l.s.<.-.:.$.$.+...P B t.B._ q.T.L.B.B.q.q.T.m.W |.).|.). XoXUXUX",
"UXUXUXY.~.~./.}.).;.n.G.G.6X4X1X5X6Xq.B.G.G.v.(.'.'.].].].].'.z.l.k.1.-.-.$.$.+.X.c r.t.N ( ( B.m.t.B.m.( B.q.l. X`.|.).`.UXUXUX",
"UXUXUXE.~._.|.|.-X4.u.G.G.4X1X1X5XOXq.D.m.B l.'.[.].].].].'.'.z.l.s.s.<.-.$.$.@. .( V.e.e.N B B.n.) m.B.q.} 9.|. X|. X~.!.UXUXUX",
"UXUXUXUX'.7. X.X X XO.w.1X4X4X4X5Xr.R.T.w.y.}.}.}.{.{.{.}.}.[.'.l.k.4.1.*.*.$.+.! n.T._ w._ N V.J.[ G.m.B.l l.XX X.X X4.UXUXUXUX",
"UXUXUXUXU.6.}.XX X-X_.0.n.y.m.u.( q.H.m.G.q.8.8.0._ / y.e.[ e.[ e.0.x W 0.x E M w.B.B.t.q.n.m e.G.q.H.m.r.0. X.X XXX~.>.UXUXUXUX",
"UXUXUXUXUXz.6.XX-X-X;X5.' V b M N.B.t.w.t.r.' V ] b.b.] { C A.C.{ N.M.P.M.{ w.L.B.B.B.L.G.w.m N m.r.J.V.` /..X XXX X>.<.UXUXUXUX",
"UXUXUXUXUXH.6._.7X-X-X<Xz.( B.J.G.G.) u.V.m.m.J.m.D.H.K.K.Z.A.zXkXR.kXkXT.W.E.L.E.J.H.B.) t.N ) ) ( K.q.s.|.|. X:X4.-.UXUXUXUXUX",
"UXUXUXUXUXUXx.~.-X7X;X-XXXx.m.m.J.G.G.B.t.r.E.K.H.G.K.L.K.n.jXlXbXR.hXE.G.K.vXJ.T.H.G.G.q.[ } r.[ m n.p.).).|.XX/.:.UXUXUXUXUXUX",
"UXUXUXUXUXUXP.|.`.7X;X-X X;XY.} G.m.t.t.L.m.N.m.G.D.m.m.K.H.hXdXfXhXfXm.kXvXR.K.H.K.H.G.G.G.m.N x B h.~.~.).|.).1.>.UXUXUXUXUXUX",
"UXUXUXUXUXUXUXW.;XXX;X7X;X|.;XMXN.e.t._ m.t.m.D.[ r.r.K.Z.K.R.jXC.Z.kXI.hXkXZ.K.kXK.K.G.G.G.m.r.{ a.5.4.~./.).^.k.UXUXUXUXUXUXUX",
"UXUXUXUXUXUXUXUX=X9X;X-XXX X`.XXMXfXm [ m.T.L.E.E.Z.b.b.dXkXZ.hXlXZ.hXfXP.P.hXM.P.P.I.G.G.D.m.A.Y.5.k.6.!.~.).).UXUXUXUXUXUXUXUX",
"UXUXUXUXUXUXUXUXUXBXuX7X X X|._.|.mXL.R.E.J.R.I.M.M.A.hXhXzXP.P.zXhXjXhXdXfXhXP.S.hXP.I.I.M.kX%X^.^.~.~.!.|.:XUXUXUXUXUXUXUXUXUX",
"UXUXUXUXUXUXUXUXUXUXBXZX8X`.).)._._.oXOXL.I.fXN.Z.fXhXdXdXaXC.sXhXlXjXaXhXaXdXdXhXdXdXaXI.@X7X.X X_.~.6.:XrXUXUXUXUXUXUXUXUXUXUX",
"UXUXUXUXUXUXUXUXUXUXUXJXKXBX_./.`.).|..XoXU.M.aXgXjXdXsXC.| C.C.gXlXdXdXaXdXdXlXaXaXhXOX8X9X9X7XXX)./.BXDXUXUXUXUXUXUXUXUXUXUXUX",
"UXUXUXUXUXUXUXUXUXUXUXUXJXLXCX).`.|.;X;X9X9XoXx.H.C.sXC.C.sXgXaXsXlXlXlXcXgXsXM.L.OX9XtXrX0X0X9X;X7XLXPXUXUXUXUXUXUXUXUXUXUXUXUX",
"UXUXUXUXUXUXUXUXUXUXUXUXUXHXKXZX.X.X7X7X0XrXtXtX0X|.@XF.n.P.{ C.| S.P.V.T.Y.OX:XuXiXZXyXyXrX0X9XyXLXPXUXUXUXUXUXUXUXUXUXUXUXUXUX",
"UXUXUXUXUXUXUXUXUXUXUXUXUXUXnXBXtX7X-X9XrXrXyXyXZXGXZXiXrX9X:X8X:X:X8X0XrXpXiXZXiXZXZXiXiXtXrXiXFXLXUXUXUXUXUXUXUXUXUXUXUXUXUXUX",
"UXUXUXUXUXUXUXUXUXUXUXUXUXUXUXUXmXeX9X9X0XtXiXZXZXAXAXSXFXFXKXFXFXFXFXKXGXZXZXAXAXAXAXZXtXrXVXVXUXUXUXUXUXUXUXUXUXUXUXUXUXUXUXUX",
"UXUXUXUXUXUXUXUXUXUXUXUXUXUXUXUXUXUX=XwXqX9X0XiXSXGXSXFXDXFXKXDXDXDXKXFXGXGXGXGXAXiXrXrXBXVXUXUXUXUXUXUXUXUXUXUXUXUXUXUXUXUXUXUX",
"UXUXUXUXUXUXUXUXUXUXUXUXUXUXUXUXUXUXUXUXvXmXqXqXeXeXVXDXDXKXKXFXKXKXKXDXSXVXVXeXqXqXwXmXUXUXUXUXUXUXUXUXUXUXUXUXUXUXUXUXUXUXUXUX",
"UXUXUXUXUXUXUXUXUXUXUXUXUXUXUXUXUXUXUXUXUXUXW.vX3X3X,X3X3XqXqXqXqXqXqXqX,X,X,X$X3X&XUXUXUXUXUXUXUXUXUXUXUXUXUXUXUXUXUXUXUXUXUXUX",
"UXUXUXUXUXUXUXUXUXUXUXUXUXUXUXUXUXUXUXUXUXUXUXUXUXUXW.*X*X&X&X&X&X&X&X&X*XOXUXUXUXUXUXUXUXUXUXUXUXUXUXUXUXUXUXUXUXUXUXUXUXUXUXUX",
"UXUXUXUXUXUXUXUXUXUXUXUXUXUXUXUXUXUXUXUXUXUXUXUXUXUXUXUXUXUXUXUXUXUXUXUXUXUXUXUXUXUXUXUXUXUXUXUXUXUXUXUXUXUXUXUXUXUXUXUXUXUXUXUX"
};
